<svg width="30" height="30" viewBox="0 0 30 30" fill="none" xmlns="http://www.w3.org/2000/svg">
<g clip-path="url(#clip0_423_464)">
<path d="M15.361 0.476562C7.41721 0.476562 0.976562 6.91721 0.976562 14.861C0.976562 22.8049 7.41721 29.2455 15.361 29.2455C23.3049 29.2455 29.7455 22.8049 29.7455 14.861C29.7455 6.91721 23.3049 0.476562 15.361 0.476562ZM16.5597 19.7242V16.0597H20.1487C20.0779 17.4299 19.8945 18.7448 19.6021 19.9903C18.6155 19.8465 17.5954 19.7649 16.5597 19.7242V19.7242ZM18.9056 22.3158C18.3075 23.9101 17.5163 25.309 16.5597 26.4585V22.1192C17.3581 22.1528 18.1408 22.2163 18.9056 22.3158ZM16.5597 13.6623V10.0482C17.6002 10.0075 18.6227 9.92476 19.614 9.77972C19.8993 11.0108 20.0803 12.3102 20.1487 13.6623H16.5597ZM16.5597 7.65202V3.26355C17.5259 4.4251 18.323 5.84077 18.9224 7.45423C18.1528 7.55492 17.3641 7.61845 16.5597 7.65202ZM19.7998 3.73584C21.2826 4.3304 22.6216 5.20786 23.7436 6.30827C22.974 6.58876 22.1721 6.8381 21.3234 7.03588C20.911 5.84677 20.3944 4.74635 19.7998 3.73584V3.73584ZM11.12 19.9903C10.8275 18.7448 10.6429 17.4299 10.5734 16.0597H14.1623V19.7242C13.1254 19.7649 12.1077 19.8465 11.12 19.9903ZM14.1623 22.1192V26.4585C13.2058 25.309 12.4146 23.9101 11.8165 22.3158C12.5812 22.2163 13.364 22.1528 14.1623 22.1192ZM10.5734 13.6623C10.6417 12.3102 10.8215 11.0108 11.108 9.77972C12.0994 9.92476 13.1219 10.0075 14.1623 10.0482V13.6623H10.5734ZM11.8009 7.45423C12.4002 5.84077 13.1974 4.4251 14.1623 3.26355V7.65202C13.358 7.61845 12.5692 7.55492 11.8009 7.45423ZM9.39747 7.03468C8.54879 6.8369 7.74685 6.58757 6.97848 6.30707C8.10167 5.20666 9.43943 4.3292 10.9222 3.73465C10.3277 4.74635 9.81103 5.84677 9.39747 7.03468V7.03468ZM8.73938 9.3338C8.42292 10.7135 8.21915 12.1627 8.14962 13.6623H3.43511C3.6329 11.6749 4.32095 9.83007 5.37342 8.24658C6.42828 8.67931 7.55027 9.04971 8.73938 9.3338ZM8.75017 20.4362C7.56585 20.7191 6.44866 21.0859 5.39739 21.5151C4.33054 19.9232 3.63409 18.064 3.43511 16.0597H8.15082C8.22034 17.5761 8.42772 19.0421 8.75017 20.4362ZM9.41306 22.7341C9.82301 23.9041 10.3337 24.9889 10.9198 25.985C9.45381 25.3977 8.13164 24.5334 7.01684 23.4498C7.77922 23.1753 8.57396 22.9283 9.41306 22.7341V22.7341ZM21.309 22.7341C22.1481 22.9295 22.9417 23.1741 23.7052 23.4498C22.5892 24.5322 21.2671 25.3977 19.801 25.9862C20.3872 24.9889 20.8979 23.9041 21.309 22.7341ZM21.9719 20.4362C22.2956 19.0421 22.5017 17.5761 22.5725 16.0597H27.2882C27.088 18.064 26.3915 19.9232 25.3247 21.5151C24.2734 21.0859 23.155 20.7191 21.9719 20.4362V20.4362ZM22.5725 13.6623C22.5029 12.1627 22.2979 10.7135 21.9827 9.3338C23.1718 9.04971 24.295 8.67931 25.3499 8.24658C26.4011 9.83007 27.0892 11.6749 27.287 13.6623H22.5725Z" fill="#DBDBDB"/>
</g>
<defs>
<clipPath id="clip0_423_464">
<rect x="0.976562" y="0.476562" width="28.7689" height="28.7689" rx="14.3845" fill="white"/>
</clipPath>
</defs>
</svg>
